#!OML:ASF F:\VICON\USERDATA\INSTALL\rory3\rory3.ASF
:FULLY-SPECIFIED
:DEGREES
91
root 0.41827416830418873 17.966715145432335 11.793983645648677 7.627608991087781 -1.2337951112718581 -1.8253052654931095
lfemur -11.612845757511636 8.39389984164534 -17.168605890685335
ltibia 16.29504438172918
lfoot -9.676191922645364 5.829444409271492
ltoes -6.380558722796335
rfemur -12.347049302092662 -2.2408823653725043 20.37219170758307
rtibia 18.601551052265926
rfoot -13.563966670334443 0.42209644607526586
rtoes 12.263126482931481
lowerback -4.112583687219013 0.08828493144111185 -0.1172246660458151
upperback 0.7739732344632071 0.0051339833799599055 1.2369171132463046
thorax 4.544278009523849 0.01629856571046584 1.37282107989218
lowerneck -11.571039466189488 0.019926902239384994 -2.1604054531913968
upperneck 31.316936027483518 0.13495138327063835 1.82380210295117
head 12.614272275336113 -0.006525037499757719 1.0194893211516811
lclavicle -1.7645633855358028e-15 2.1607541711194864e-16
lhumerus -26.44980820184543 -1.138712768679263 87.38516449619225
lradius 20.83191611842932
lwrist 3.9746643464975646
lhand -23.4244787479584 -4.7481052448623515
lfingers 7.125019999999999
lthumb 3.0331486117941577 25.213841165381318
rclavicle -1.7645633855358028e-15 2.1607541711194864e-16
rhumerus -25.962639623825755 -15.7195031738549 -79.66741103389079
rradius 25.02693242873179
rwrist 37.09913834836111
rhand -16.751965792924494 -26.80083164454887
rfingers 7.125019999999999
rthumb 9.474463777166106 -56.58433401613855
92
root 0.42936090499432805 17.99767645950514 11.806857475798052 7.769492217870567 -1.2276978163669332 -1.8104322822117414
lfemur -11.713484508733474 8.47803011751381 -17.14704914632257
ltibia 17.32053555074077
lfoot -9.317150843503688 5.955604167414826
ltoes -6.3066811098464735
rfemur -12.42901665741431 -2.180002983355643 20.351501072866977
rtibia 19.699947938815974
rfoot -13.139884183256253 0.41889080584964944
rtoes 12.363917745862658
lowerback -3.712986767967198 0.13634530008091827 -0.060725811490216
upperback 0.9467294782047568 0.06682921851404014 1.26244100131635
thorax 4.607988285916603 0.04964575455866735 1.3884841243282713
lowerneck -11.475600310883308 0.06355812001191909 -2.1528318072270154
upperneck 31.337500338278545 0.21701594395887225 1.803083379567141
head 12.60697859277449 0.01953098973121966 1.0171028119939363
lclavicle -1.5387157640574507e-15 5.158846862229816e-16
lhumerus -26.007543851628313 -0.8320929667100891 87.5072508505038
lradius 20.98250993833713
lwrist 4.499474562834633
lhand -23.37573294495388 -4.680875071136037
lfingers 7.125019999999999
lthumb 3.0802174775468583 25.27966288819997
rclavicle -1.5387157640574507e-15 5.158846862229816e-16
rhumerus -25.832392087910662 -15.538374823766702 -79.4678526571631
rradius 25.20421537101587
rwrist 37.166607193506714
rhand -16.663558262602276 -26.719980292090206
rfingers 7.125019999999999
rthumb 9.559759524245893 -56.50013906197326
93
root 0.43438983569652784 17.97120163384976 11.467027044216117 7.660704350068313 -1.2857606056789392 -1.8116567112318749
lfemur -11.792409350648974 8.546080336615413 -17.212589519155134
ltibia 17.2530360967411
lfoot -9.573438688609944 5.944152299948384
ltoes -6.320945696123995
rfemur -12.509436679058885 -2.130304045301311 20.344087707519215
rtibia 19.583970283793843
rfoot -13.411638387204377 0.45279295536763
rtoes 11.995626390758094
lowerback -3.784251748828532 0.13976403546897426 -0.04002444020343071
upperback 0.9581354539388618 0.07294521055393821 1.2423021611143175
thorax 4.648659993852313 0.0535478298591852 1.355583891484999
lowerneck -11.464225564017044 0.07853931404434476 -2.1413669341509394
upperneck 31.317742612636344 0.2328944718953778 1.780066469502081
head 12.589640009700465 0.02743538613691212 1.0102041734309084
lclavicle -1.6021928717849662e-15 4.3145954895933854e-16
lhumerus -25.993020935622653 -1.0787158585162933 87.52216967102281
lradius 21.11795063877995
lwrist 4.972081447347915
lhand -23.39250992378325 -4.657280700486163
lfingers 7.125019999999999
lthumb 3.064012240313599 25.30276595839151
rclavicle -1.6021928717849662e-15 4.3145954895933854e-16
rhumerus -25.761917398414788 -15.720340096899974 -79.45491531080349
rradius 25.340107942818225
rwrist 37.03684574110108
rhand -16.658026965901655 -26.69584592346886
rfingers 7.125019999999999
rthumb 9.565086968946911 -56.47416408788487
94
root 0.44311087452284337 17.98447924141051 11.275371707191958 7.6671215675776345 -1.2912942488805517 -1.7935175411995623
lfemur -12.055571630053473 8.602869248974217 -17.231576849012917
ltibia 18.030046655804313
lfoot -9.334260758960443 6.03415713290566
ltoes -6.360967240503632
rfemur -12.788619518827891 -2.090855676964361 20.28592695233382
rtibia 20.45732296912807
rfoot -13.103972033614445 0.41818103233969417
rtoes 12.01818046651001
lowerback -3.487866699607971 0.16063586220465795 0.0016421623673646413
upperback 1.1179849353995013 0.09840893402720427 1.2588250685888305
thorax 4.6548514070657445 0.06806653158194313 1.3600615631512132
lowerneck -11.388960434348048 0.11588922919422771 -2.1436702990172267
upperneck 31.3117328599307 0.30456603081651884 1.752649981622896
head 12.572085876726158 0.04885364784830925 1.0078605552383424
lclavicle -1.4754073248276135e-15 5.997256267871654e-16
lhumerus -25.648383371175306 -1.3004035535121494 87.70151690677213
lradius 21.303165928005004
lwrist 5.545466235665996
lhand -23.386621584509296 -4.650873106273242
lfingers 7.125019999999999
lthumb 3.0696941341120474 25.30824940794983
rclavicle -1.4754073248276135e-15 5.997256267871654e-16
rhumerus -25.64215887463606 -15.457680248454926 -79.34981351966408
rradius 25.486882393946505
rwrist 36.94470893550484
rhand -16.608759949683947 -26.608109159614635
rfingers 7.125019999999999
rthumb 9.61262351604352 -56.383598419830356
95
root 0.4482819734961315 17.93953744495816 10.838396927607619 7.6302320672714 -1.335055728443685 -1.8089163304745612
lfemur -12.529092898312472 8.618587463982895 -17.30163511586613
ltibia 18.12795679483737
lfoot -9.724379808582219 6.0035149007139275
ltoes -6.478760622480794
rfemur -13.217927272753844 -2.0806112499011826 20.274946299294673
rtibia 20.507527491954903
rfoot -13.517529495149876 0.3046100781522125
rtoes 11.549793387922987
lowerback -3.5098282109984194 0.14780900387877335 -0.0034702016960858617
upperback 1.1212893883731123 0.08526836896536452 1.2516923665501731
thorax 4.603446020480007 0.06181012255326536 1.3454776998369358
lowerneck -11.452332203685152 0.11648805082931844 -2.136442854734298
upperneck 31.050458513304683 0.30165487958704157 1.7092708830052292
head 12.481196052328855 0.04946114904824204 0.9945070734910149
lclavicle -1.6046091512951789e-15 4.280063988782154e-16
lhumerus -25.601778321063083 -1.8132299766108886 87.74735457303397
lradius 21.364991656640523
lwrist 5.91869657926382
lhand -23.435549473816664 -4.713440230647692
lfingers 7.125019999999999
lthumb 3.022441932793019 25.24595219772864
rclavicle -1.6046091512951789e-15 4.280063988782154e-16
rhumerus -25.577380705073924 -15.534766065222627 -79.40244564524913
rradius 25.549866942505943
rwrist 36.771121136725995
rhand -16.627999386776064 -26.58756420913959
rfingers 7.125019999999999
rthumb 9.594054340196148 -56.361572060573444
96
root 0.45409713351358816 17.94024812836707 10.541638501557234 7.6113987937095615 -1.3325700813250223 -1.791316366885301
lfemur -12.741166301255035 8.63719519170192 -17.345546523944503
ltibia 18.64253589790404
lfoot -9.635189688957206 6.081308756380238
ltoes -6.524713002668706
rfemur -13.462084816677537 -2.0342462539966046 20.228733581538915
rtibia 21.07975380901478
rfoot -13.380152268592589 0.2901252242541532
rtoes 11.535012759824804
lowerback -3.348237031633772 0.14585533904905804 0.02317664008398579
upperback 1.2700758572899853 0.08062589474923304 1.2595363322078508
thorax 4.61262431284458 0.060083068826638567 1.343823048795744
lowerneck -11.392216060457566 0.13886809282397566 -2.1364234277334977
upperneck 31.07457439782639 0.34490038826970426 1.6899233347773577
head 12.473525285797159 0.061827212354974494 0.9923404671035015
lclavicle -1.5316649832073043e-15 5.248234892035795e-16
lhumerus -25.408447254558155 -2.3032876254541668 88.01562509781682
lradius 21.594846253912753
lwrist 6.568121111416055
lhand -23.472829060091566 -4.774253316883667
lfingers 7.125019999999999
lthumb 2.98643731077921 25.185188875028206
rclavicle -1.5316649832073041e-15 5.248234892035795e-16
rhumerus -25.447853843513887 -15.233934243580645 -79.39868979058767
rradius 25.73914845748193
rwrist 36.575593907497165
rhand -16.62096079198112 -26.515006362769693
rfingers 7.125019999999999
rthumb 9.600847986536102 -56.28704590430732
97
root 0.4582540183243192 17.87308469435414 9.903366328841892 7.612512551659602 -1.35947898575003 -1.8268435119512996
lfemur -13.665632597157211 8.590001372404373 -17.42226905009625
ltibia 18.811195483477505
lfoot -10.140318349392855 6.020288463175875
ltoes -6.855779834928522
rfemur -14.304885532197918 -2.096634168174141 20.208574498683397
rtibia 21.220237093233017
rfoot -13.895065714775248 -0.00749888993735226
rtoes 10.9791590116886
lowerback -3.329300661594397 0.125113289025289 -0.005907547925241452
upperback 1.2828831998822545 0.054702375690245525 1.2680919851255752
thorax 4.438758967705815 0.04711102538813118 1.346564641545615
lowerneck -11.528820732390596 0.13204448702559318 -2.133815988354371
upperneck 30.525142256892387 0.3359844553011103 1.6204584223000484
head 12.28588421062599 0.05882203432267851 0.9719599872201572
lclavicle -1.750480936768869e-15 2.34178379297446e-16
lhumerus -25.306774213884836 -3.001266239147732 88.07944948849418
lradius 21.516041069796252
lwrist 6.715875272889608
lhand -23.543301759857233 -4.9010376164065015
lfingers 7.125019999999999
lthumb 2.918379054000814 25.058790215409726
rclavicle -1.750480936768869e-15 2.34178379297446e-16
rhumerus -25.406513638819305 -15.259316294972441 -79.51914581061537
rradius 25.67797276066811
rwrist 36.32618314644919
rhand -16.66922194234298 -26.499521375243454
rfingers 7.125019999999999
rthumb 9.554284566302904 -56.271182076295
